<?xml version="1.0" encoding="utf-8"?>
<!-- Generator: Adobe Illustrator 24.0.1, SVG Export Plug-In . SVG Version: 6.00 Build 0)  -->
<svg version="1.1" id="Camada_1" xmlns="http://www.w3.org/2000/svg" xmlns:xlink="http://www.w3.org/1999/xlink" x="0px" y="0px"
	 viewBox="0 0 610 142.4" style="enable-background:new 0 0 595.3 142.4;" xml:space="preserve">
<style type="text/css">
	.st0{enable-background:new    ;}
	.st1{fill:#F9F8F8;}
</style>
<title>fgyhgAtivo 1</title>
<g id="Camada_2_1_">
	<g id="Camada_1-2">
		<g class="st0">
			<path class="st1" d="M109.2,8v16h-16v80h16v16h-48v-16h16V24h-16V8H109.2z"/>
		</g>
		<g class="st0">
			<path class="st1" d="M188.9,104v16h-16v-16H188.9z"/>
		</g>
		<g class="st0">
			<path class="st1" d="M309.4,8v16h-48v32h48v16h-48v32h48v16h-64V8H309.4z M325.4,24v32h-16V24H325.4z M325.4,72v32h-16V72H325.4z
				"/>
			<path class="st1" d="M397.1,104v16h-16v-16H397.1z"/>
		</g>
		<g class="st0">
			<path class="st1" d="M470,8v96h-16V8H470z M518,104v16h-48v-16H518z M518,8h16v96h-16V8z"/>
		</g>
		<g class="st0">
			<path class="st1" d="M605,104v16h-16v-16H188.9z"/>
		</g>
	</g>
</g>
</svg>
