<?xml version="1.0" encoding="utf-8"?>
<!-- Generator: Adobe Illustrator 24.0.1, SVG Export Plug-In . SVG Version: 6.00 Build 0)  -->
<svg version="1.1" id="Camada_1" xmlns="http://www.w3.org/2000/svg" xmlns:xlink="http://www.w3.org/1999/xlink" x="0px" y="0px"
	 viewBox="0 0 595.3 595.3" style="enable-background:new 0 0 595.3 595.3;" xml:space="preserve">
<style type="text/css">
	.st0{fill:#D86E5A;}
	.st1{fill:#F9F8F8;}
</style>
<path class="st0" d="M119.3,118.9c-11.9-6.6-22.6-12.1-32.8-18.4c-12.2-7.5-20.9-17.3-20.3-33c0.8-18.7,17.1-29.9,34.3-22.8
	c18.2,7.6,34.7,18.5,51.8,28.2c9.5,5.3,18.9,10.8,28.4,16.2c0.6-0.6,1.1-1.1,1.7-1.7c-3.4-5.4-6.6-10.9-10.1-16.2
	c-5.1-7.9-10.3-15.8-13-24.9c-4-13.2,0.8-25.3,12-30.9c9.6-4.8,21.5-1.4,29.3,9.4C224,57.3,244.6,91.6,266,125.2
	c13.3,20.9,27.2,41.5,37.1,64.4c18.1,42,15.7,83.4-5.3,123.5c-27.5,52.5-68.4,92.6-119.2,122.6c-13,7.7-27.2,12.9-41.9,16.4
	c-31.4,7.6-63-9.7-74.6-40c-9.7-25.4-9.8-51.6-7.2-78c3.9-39.4,13.4-77.3,30.2-113.3c4.1-8.9,8.1-17.8,12.1-26.7
	c3.1-6.9,1.9-8.7-6-7.9c-19.9,2.2-39.8,4.1-59.8,3.7C13.2,189.6,0.2,176.3,0,158.3c-0.2-15.8,8.4-26.6,24.3-29.1
	c24.6-3.8,49.4-5.2,74.2-7C104.9,121.7,111.5,122.1,119.3,118.9z M182.8,132.9c-3.5,2.3-6.5,2.6-9.5,2.8
	c-23.8,1.9-47.7,3.7-71.5,5.6c-25.4,2-50.7,4.1-76.1,6.2c-8.1,0.7-12.2,5.3-11.4,13.3c0.7,7.6,3.9,13.4,13,13
	c12.4-0.6,24.8-1,37.2-1.7c19-1,38.1-2.2,57.1-3.4c6.7-0.4,7.2,2.7,4.6,7.7c-2.6,5.1-5.1,10.3-7.7,15.4
	c-22.6,44.2-37.7,90.5-40.1,140.4c-0.9,18.3-0.2,36.7,7.4,53.6c14.7,32.4,42.3,47,81.4,29.7c54.1-24,94.6-63.2,122.2-115.1
	c22.3-42.1,19.2-84.9-5-124.8c-24.8-40.9-52.5-80.1-79-120c-5.2-7.8-10.4-15.6-16-23.1c-3-4-6.8-7.2-12.4-4.8
	c-5.9,2.5-6.3,7.5-5.6,13c0.4,2.5,1.5,4.5,2.8,6.6c15,24.8,30,49.7,45,74.6c1.4,2.4,4.2,4.4,2,8c-19-8.6-35.9-20-53.8-29.9
	C143.5,86.8,119.9,73.4,96,60.4C87,55.5,80,59.9,78.9,70.1c-0.5,4.6,0.2,8.4,4.7,10.7c24.6,12.7,49.1,25.4,73.7,38.2
	C165.7,123.3,173.9,128.1,182.8,132.9z"/>
<path class="st1" d="M595.3,406.6c-0.9,31.4-8.6,60.4-29.9,84.8c-9.4,10.8-20.7,18.6-34.8,21.8c-53.5,12.1-106.9,24.4-160.5,36.1
	c-40.9,9-82,16.6-122.8,25.9c-48,11-91.7-18.1-108.4-60.4c-2.7-6.7-4.4-13.9-6.9-20.6c-1.7-4.6,0-6.8,4.1-8.3
	c0.6-0.2,1.2-0.3,1.7-0.6c17.5-7.2,17.4-7.1,24.6,9.9c13.2,31,35.1,51.3,69.6,55.3c15,1.7,29.5-2.9,44-5.8
	c77.3-15.4,154.3-32.1,231.8-46.5c39.2-7.3,60.1-30,66.9-67.6c5.7-31.8,2.7-61.7-21.2-86.4c-1.9-2-3.6-4.6-5.9-5.5
	c-11-4.5-12.6-13.3-13.2-23.8c-1-18.2-4.3-36-13.3-52.4c-16.4-29.5-42.3-41.1-72.2-31.9c-9,2.8-16.2,8.2-22.5,14.9
	c-4,4.4-6.3,3.8-9.8-0.5c-8.7-10.7-18.7-19.8-31.6-25.4c-13.8-6.1-28-7.8-42.6-3.9c-5,1.3-7.2,0.1-9-4.3c-2.4-5.9-4.9-11.8-8.1-17.3
	c-4.9-8.2-0.3-9.7,6.4-10.7c27.7-4.1,51.5,4.1,71.8,23c4.2,3.9,8.1,8.2,11.6,12.8c2.9,3.9,5.3,4.9,9.2,1.2
	c34.6-32.7,81.6-22.3,107.2,20.3c12.7,21.1,17.1,44.5,18.4,68.6c0.2,3.8,0.5,6.8,4.5,8.9c18,9.7,27.3,26.3,33.8,44.6
	C593.1,376.8,595.4,391.5,595.3,406.6z"/>
<path class="st0" d="M204.9,165.1c32.8-3,61,27.4,68.8,56.7c7.9,29.7,0.6,55.9-17.9,79.4c-19.5,24.8-57.8,27.1-85.1,6.7
	c-9.3-7-17.2-15.3-22.7-24.8c-4.9-8.6-6.8-19.3-8.4-29.3c-5.5-34,9.8-70.9,41.6-84.9C189,165.4,197,164.9,204.9,165.1z M269.3,254.8
	c0.8-24.2-3.8-40.4-13.8-55.2c-22.2-32.9-67.1-36.1-92.3-5.7c-18.9,22.8-20.8,48.8-10.6,76.1c9,24.2,26,39,51.7,42.7
	C235.3,317.1,267.9,291.3,269.3,254.8z"/>
</svg>
